:FULLY-SPECIFIED
:FORCE-ALL-JOINTS-BE-3DOF
:DEGREES
97
root 9.41234 16.3461 -23.6452 3.37933 -2.49846 3.5185
lfemur -2.90306 0.795095 -28.9274
ltibia 17.2745 0 0
lfoot -16.5729 7.20996 0
ltoes -3.49493 0 0
rfemur -32.6774 4.68935 15.5248
rtibia 46.0053 0 0
rfoot -20.8479 -9.27376 0
rtoes -15.0919 0 0
lowerback -6.70272 -2.00545 -4.14273
upperback -0.601111 -2.4335 2.03615
thorax 3.38606 -1.28155 4.19618
lowerneck -21.3378 -4.64496 -12.0736
upperneck 20.6008 -5.40217 11.3352
head 10.8202 -2.08429 5.30739
lclavicle 1.44318e-14 -1.79126e-14 0
lhumerus -21.7839 -21.5006 87.2629
lradius 35.7888 0 0
lwrist 9.27322 0 0
lhand -14.0124 -24.5686 0
lfingers 7.12502 0 0
lthumb 12.1187 5.07802 0
rclavicle 1.44318e-14 -1.79126e-14 0
rhumerus -44.1589 11.8346 -87.4983
rradius 38.3922 0 0
rwrist -21.2067 0 0
rhand -30.2542 -23.775 0
rfingers 7.12502 0 0
rthumb -3.56286 -53.7241 0
98
root 9.41477 16.343 -23.521 3.36913 -2.0848 3.56065
lfemur -1.92694 0.716943 -28.9732
ltibia 16.3347 0 0
lfoot -16.5501 6.94085 0
ltoes -3.50137 0 0
rfemur -33.1591 4.98814 15.2233
rtibia 44.5458 0 0
rfoot -20.8092 -8.89899 0
rtoes -15.3686 0 0
lowerback -6.86313 -2.0714 -4.13584
upperback -0.564741 -2.51428 2.00103
thorax 3.52095 -1.32534 4.14218
lowerneck -21.1784 -4.68205 -12.0934
upperneck 20.6418 -5.46084 11.2994
head 10.8129 -2.12166 5.28867
lclavicle 1.77313e-14 -1.91753e-14 0
lhumerus -21.6451 -22.0883 87.3397
lradius 36.4364 0 0
lwrist 9.7747 0 0
lhand -14.227 -24.6203 0
lfingers 7.12502 0 0
lthumb 11.9115 5.03582 0
rclavicle 1.77313e-14 -1.91753e-14 0
rhumerus -44.2306 11.6583 -87.4034
rradius 38.2089 0 0
rwrist -21.1012 0 0
rhand -30.1635 -23.7611 0
rfingers 7.12502 0 0
rthumb -3.47532 -53.7117 0
99
root 9.41652 16.3393 -23.396 3.36437 -1.67389 3.60426
lfemur -0.959761 0.645616 -29.0127
ltibia 15.4061 0 0
lfoot -16.5217 6.66735 0
ltoes -3.51458 0 0
rfemur -33.6269 5.28311 14.914
rtibia 43.1096 0 0
rfoot -20.7637 -8.54325 0
rtoes -15.6383 0 0
lowerback -7.02014 -2.13732 -4.13352
upperback -0.531399 -2.59477 1.96728
thorax 3.65124 -1.3689 4.09219
lowerneck -21.0226 -4.71874 -12.1143
upperneck 20.6809 -5.51846 11.2652
head 10.8056 -2.15836 5.27082
lclavicle 2.08764e-14 -2.03791e-14 0
lhumerus -21.5344 -22.654 87.4316
lradius 37.0594 0 0
lwrist 10.2529 0 0
lhand -14.4213 -24.6663 0
lfingers 7.12502 0 0
lthumb 11.7239 4.99782 0
rclavicle 2.08764e-14 -2.03791e-14 0
rhumerus -44.3046 11.4799 -87.3057
rradius 38.0227 0 0
rwrist -20.9953 0 0
rhand -30.0765 -23.7441 0
rfingers 7.12502 0 0
rthumb -3.39128 -53.6961 0
100
root 9.41757 16.335 -23.2703 3.36552 -1.26738 3.64994
lfemur -0.00517318 0.580871 -29.0457
ltibia 14.4947 0 0
lfoot -16.4888 6.39122 0
ltoes -3.53578 0 0
rfemur -34.0822 5.5723 14.5986
rtibia 41.7113 0 0
rfoot -20.7189 -8.21297 0
rtoes -15.8997 0 0
lowerback -7.17215 -2.2033 -4.13699
upperback -0.501474 -2.67505 1.93534
thorax 3.77572 -1.41227 4.04744
lowerneck -20.8718 -4.75479 -12.1363
upperneck 20.7184 -5.57454 11.2327
head 10.7984 -2.19408 5.25403
lclavicle 2.38163e-14 -2.15035e-14 0
lhumerus -21.4525 -23.1931 87.54
lradius 37.652 0 0
lwrist 10.703 0 0
lhand -14.5944 -24.7074 0
lfingers 7.12502 0 0
lthumb 11.5567 4.96352 0
rclavicle 2.38163e-14 -2.15035e-14 0
rhumerus -44.3807 11.3004 -87.2046
rradius 37.8352 0 0
rwrist -20.8907 0 0
rhand -29.9948 -23.7229 0
rfingers 7.12502 0 0
rthumb -3.31234 -53.6762 0
101
root 9.41789 16.33 -23.1438 3.373 -0.866916 3.69828
lfemur 0.933153 0.52246 -29.0721
ltibia 13.607 0 0
lfoot -16.4524 6.1142 0
ltoes -3.56618 0 0
rfemur -34.527 5.85374 14.2786
rtibia 40.3658 0 0
rfoot -20.6822 -7.91461 0
rtoes -16.1519 0 0
lowerback -7.31753 -2.26943 -4.14752
upperback -0.475356 -2.75524 1.90566
thorax 3.89317 -1.45547 4.00913
lowerneck -20.7279 -4.78999 -12.1595
upperneck 20.7542 -5.62857 11.202
head 10.7918 -2.22855 5.23844
lclavicle 2.65e-14 -2.25282e-14 0
lhumerus -21.4002 -23.7009 87.6662
lradius 38.2083 0 0
lwrist 11.12 0 0
lhand -14.7456 -24.744 0
lfingers 7.12502 0 0
lthumb 11.4108 4.93239 0
rclavicle 2.65e-14 -2.25282e-14 0
rhumerus -44.4592 11.1208 -87.0994
rradius 37.6478 0 0
rwrist -20.7886 0 0
rhand -29.92 -23.6963 0
rfingers 7.12502 0 0
rthumb -3.24014 -53.6509 0
102
root 9.41744 16.3244 -23.0164 3.38728 -0.474154 3.74991
lfemur 1.85155 0.470138 -29.0919
ltibia 12.7491 0 0
lfoot -16.4138 5.83803 0
ltoes -3.60698 0 0
rfemur -34.9627 6.12548 13.9559
rtibia 39.088 0 0
rfoot -20.6611 -7.65459 0
rtoes -16.3937 0 0
lowerback -7.45466 -2.33579 -4.16634
upperback -0.453434 -2.83544 1.87868
thorax 4.00237 -1.49854 3.97849
lowerneck -20.5925 -4.8241 -12.184
upperneck 20.7884 -5.68004 11.1733
head 10.786 -2.26147 5.22423
lclavicle 2.88767e-14 -2.34329e-14 0
lhumerus -21.3784 -24.1728 87.8115
lradius 38.7226 0 0
lwrist 11.4993 0 0
lhand -14.8739 -24.7769 0
lfingers 7.12502 0 0
lthumb 11.2868 4.90393 0
rclavicle 2.88767e-14 -2.34329e-14 0
rhumerus -44.5398 10.942 -86.9896
rradius 37.4617 0 0
rwrist -20.6907 0 0
rhand -29.8539 -23.6635 0
rfingers 7.12502 0 0
rthumb -3.17629 -53.6192 0
103
root 9.4162 16.3181 -22.8882 3.40878 -0.0907461 3.80545
lfemur 2.74636 0.423658 -29.1051
ltibia 11.9274 0 0
lfoot -16.3739 5.56447 0
ltoes -3.65941 0 0
rfemur -35.3913 6.38556 13.6321
rtibia 37.8925 0 0
rfoot -20.6629 -7.43935 0
rtoes -16.6239 0 0
lowerback -7.58192 -2.40248 -4.1947
upperback -0.436096 -2.91575 1.85484
thorax 4.10209 -1.54152 3.95673
lowerneck -20.4673 -4.85689 -12.21
upperneck 20.8212 -5.72847 11.1468
head 10.7812 -2.29256 5.21156
lclavicle 3.08955e-14 -2.41972e-14 0
lhumerus -21.3878 -24.604 87.9772
lradius 39.1889 0 0
lwrist 11.8358 0 0
lhand -14.9784 -24.8067 0
lfingers 7.12502 0 0
lthumb 11.1858 4.87761 0
rclavicle 3.08955e-14 -2.41972e-14 0
rhumerus -44.6227 10.765 -86.8747
rradius 37.2785 0 0
rwrist -20.5983 0 0
rhand -29.7981 -23.6233 0
rfingers 7.12502 0 0
rthumb -3.12241 -53.5799 0
104
root 9.41412 16.311 -22.7591 3.43796 0.281656 3.86549
lfemur 3.61391 0.382776 -29.1115
ltibia 11.1482 0 0
lfoot -16.3338 5.29526 0
ltoes -3.72466 0 0
rfemur -35.8142 6.63203 13.3089
rtibia 36.7943 0 0
rfoot -20.6952 -7.27535 0
rtoes -16.8415 0 0
lowerback -7.6977 -2.4696 -4.23384
upperback -0.423732 -2.99627 1.83459
thorax 4.19112 -1.58442 3.94506
lowerneck -20.3539 -4.88813 -12.2374
upperneck 20.8526 -5.77335 11.1226
head 10.7778 -2.32153 5.20059
lclavicle 3.25057e-14 -2.48008e-14 0
lhumerus -21.4292 -24.99 88.1648
lradius 39.6015 0 0
lwrist 12.1248 0 0
lhand -15.0585 -24.8341 0
lfingers 7.12502 0 0
lthumb 11.1084 4.85291 0
rclavicle 3.25057e-14 -2.48008e-14 0
rhumerus -44.7077 10.5907 -86.754
rradius 37.0995 0 0
rwrist -20.513 0 0
rhand -29.7543 -23.5747 0
rfingers 7.12502 0 0
rthumb -3.08014 -53.532 0
105
root 9.41119 16.3032 -22.629 3.47526 0.641401 3.93065
lfemur 4.45053 0.347245 -29.1112
ltibia 10.4175 0 0
lfoot -16.2947 5.03214 0
ltoes -3.80396 0 0
rfemur -36.2333 6.86291 12.9879
rtibia 35.8081 0 0
rfoot -20.7654 -7.16901 0
rtoes -17.0453 0 0
lowerback -7.80038 -2.53721 -4.28501
upperback -0.416731 -3.0771 1.81838
thorax 4.26824 -1.62729 3.94472
lowerneck -20.254 -4.9176 -12.2666
upperneck 20.8826 -5.81419 11.1008
head 10.776 -2.34809 5.1915
lclavicle 3.36564e-14 -2.52233e-14 0
lhumerus -21.5034 -25.3261 88.3754
lradius 39.9544 0 0
lwrist 12.3614 0 0
lhand -15.1132 -24.8596 0
lfingers 7.12502 0 0
lthumb 11.0556 4.82932 0
rclavicle 3.36564e-14 -2.52233e-14 0
rhumerus -44.795 10.42 -86.6269
rradius 36.9261 0 0
rwrist -20.4362 0 0
rhand -29.7242 -23.5165 0
rfingers 7.12502 0 0
rthumb -3.05108 -53.4743 0
106
root 9.40737 16.2945 -22.498 3.52113 0.986836 4.00154
lfemur 5.25256 0.31682 -29.1039
ltibia 9.74187 0 0
lfoot -16.2577 4.77688 0
ltoes -3.89851 0 0
rfemur -36.6502 7.07626 12.6709
rtibia 34.9488 0 0
rfoot -20.8809 -7.12677 0
rtoes -17.2342 0 0
lowerback -7.88833 -2.60543 -4.34945
upperback -0.415482 -3.15836 1.80664
thorax 4.33223 -1.67016 3.95691
lowerneck -20.1694 -4.94507 -12.2974
upperneck 20.9115 -5.85047 11.0816
head 10.7761 -2.37195 5.18444
lclavicle 3.42966e-14 -2.54444e-14 0
lhumerus -21.6112 -25.6076 88.6104
lradius 40.2418 0 0
lwrist 12.5408 0 0
lhand -15.1416 -24.884 0
lfingers 7.12502 0 0
lthumb 11.0282 4.80632 0
rclavicle 3.42966e-14 -2.54444e-14 0
rhumerus -44.8845 10.254 -86.493
rradius 36.7597 0 0
rwrist -20.3694 0 0
rhand -29.7095 -23.4478 0
rfingers 7.12502 0 0
rthumb -3.03687 -53.4059 0
107
root 9.40277 16.2844 -22.3664 3.57916 1.32483 4.08308
lfemur 6.03108 0.291487 -29.0965
ltibia 9.09761 0 0
lfoot -16.2413 4.51624 0
ltoes -4.00528 0 0
rfemur -37.0639 7.28694 12.3286
rtibia 34.1721 0 0
rfoot -21.0435 -7.15987 0
rtoes -17.4122 0 0
lowerback -7.96643 -2.67636 -4.43359
upperback -0.421274 -3.24203 1.79884
thorax 4.38528 -1.71414 3.98413
lowerneck -20.0976 -4.97065 -12.3306
upperneck 20.9423 -5.88232 11.0634
head 10.7788 -2.39348 5.179
lclavicle 3.44276e-14 -2.54488e-14 0
lhumerus -21.7677 -25.862 88.8921
lradius 40.4864 0 0
lwrist 12.6812 0 0
lhand -15.1318 -24.9043 0
lfingers 7.12502 0 0
lthumb 11.0377 4.78561 0
rclavicle 3.44276e-14 -2.54488e-14 0
rhumerus -44.9789 10.0882 -86.3497
rradius 36.5967 0 0
rwrist -20.3141 0 0
rhand -29.7127 -23.3646 0
rfingers 7.12502 0 0
rthumb -3.03997 -53.3226 0
108
root 9.39752 16.2725 -22.2345 3.6517 1.66287 4.17845
lfemur 6.79936 0.27153 -29.0943
ltibia 8.45844 0 0
lfoot -16.259 4.23757 0
ltoes -4.1204 0 0
rfemur -37.4716 7.5092 11.9356
rtibia 33.4247 0 0
rfoot -21.2458 -7.26956 0
rtoes -17.5838 0 0
lowerback -8.04054 -2.75157 -4.54109
upperback -0.434669 -3.32957 1.79403
thorax 4.43061 -1.7601 4.0269
lowerneck -20.0348 -4.99472 -12.3666
upperneck 20.9776 -5.91042 11.0448
head 10.7843 -2.41331 5.17465
lclavicle 3.41113e-14 -2.52486e-14 0
lhumerus -21.9841 -26.1169 89.2368
lradius 40.7134 0 0
lwrist 12.8029 0 0
lhand -15.0751 -24.9174 0
lfingers 7.12502 0 0
lthumb 11.0923 4.76916 0
rclavicle 3.41113e-14 -2.52486e-14 0
rhumerus -45.0802 9.91805 -86.1956
rradius 36.4327 0 0
rwrist -20.2698 0 0
rhand -29.7339 -23.2649 0
rfingers 7.12502 0 0
rthumb -3.06041 -53.2227 0
